<svg width="30" height="30" viewBox="0 0 30 30" fill="none" xmlns="http://www.w3.org/2000/svg">
<g clip-path="url(#clip0_2_86)">
<g clip-path="url(#clip1_2_86)">
<path d="M22.9863 2.30859C20.6309 0.878906 17.9531 0 15 0V2.30859H22.9863Z" fill="#ED4C5C"/>
<path d="M15 4.61719H25.7988C24.9668 3.78516 24 2.95312 22.9863 2.30859H15V4.61719Z" fill="white"/>
<path d="M15 6.87891H27.6445C27.0879 6.04688 26.4902 5.26172 25.8457 4.57031H15V6.87891Z" fill="#ED4C5C"/>
<path d="M15 9.1875H28.8457C28.4766 8.40234 28.1074 7.57031 27.6445 6.87891H15V9.1875Z" fill="white"/>
<path d="M15 11.4902H29.584C29.3965 10.7051 29.1211 9.91992 28.8457 9.18164H15V11.4902Z" fill="#ED4C5C"/>
<path d="M15 13.8457H29.9531C29.9062 13.0605 29.7656 12.2754 29.584 11.5371H15V13.8457Z" fill="white"/>
<path d="M29.9531 13.8457H15V15H0C0 15.416 0 15.7383 0.046875 16.1543H29.9531C30 15.7383 30 15.416 30 15C30 14.584 30 14.2148 29.9531 13.8457Z" fill="#ED4C5C"/>
<path d="M0.416016 18.4629H29.6309C29.8184 17.7246 29.9063 16.9395 30 16.1543H0.046875C0.09375 16.8926 0.228516 17.7246 0.416016 18.4629Z" fill="white"/>
<path d="M1.1543 20.7715H28.8457C29.1211 20.0332 29.4023 19.248 29.584 18.4629H0.416016C0.597656 19.248 0.832031 19.9863 1.1543 20.7715Z" fill="#ED4C5C"/>
<path d="M2.35547 23.0332H27.6504C28.1133 22.2949 28.4824 21.5098 28.8516 20.7246H1.1543C1.52344 21.5566 1.89258 22.2949 2.35547 23.0332Z" fill="white"/>
<path d="M4.1543 25.3359H25.8457C26.4902 24.6445 27.1406 23.8125 27.6445 23.0273H2.35547C2.85938 23.9062 3.50977 24.6445 4.1543 25.3359Z" fill="#ED4C5C"/>
<path d="M6.9668 27.6445H23.0742C24.1348 27 25.0137 26.2148 25.8867 25.3359H4.20117C4.98633 26.2617 5.95313 27 6.9668 27.6445Z" fill="white"/>
<path d="M15 30C17.9531 30 20.6777 29.168 23.0332 27.6445H6.9668C9.32227 29.168 12.0469 30 15 30Z" fill="#ED4C5C"/>
<path d="M7.01367 2.30859C5.95312 2.95313 5.02734 3.73828 4.1543 4.61719C3.46289 5.30859 2.85938 6.14062 2.35547 6.92578C1.89258 7.66406 1.42969 8.44922 1.1543 9.23438C0.832031 9.97266 0.597656 10.7578 0.416016 11.543C0.228516 12.2813 0.09375 13.0664 0.046875 13.8516C0 14.2617 0 14.6309 0 15.0469H15V13.8926V11.5371V9.22852V6.91992V4.61719V2.30859V0C12.0469 0 9.36914 0.832031 7.01367 2.30859Z" fill="#428BC1"/>
<path d="M11.4902 0.509766L11.7715 1.24805H12.5098L11.9062 1.75195L12.0937 2.49023L11.4902 2.0332L10.8926 2.49023L11.0742 1.75195L10.5234 1.24805H11.2617L11.4902 0.509766Z" fill="white"/>
<path d="M13.5234 3.50977L13.752 4.24805H14.4902L13.8926 4.75195L14.0742 5.49023L13.5234 5.0332L12.9258 5.49023L13.1074 4.75195L12.5098 4.24805H13.248L13.5234 3.50977Z" fill="white"/>
<path d="M9.50977 3.50977L9.73828 4.24805H10.5234L9.92578 4.75195L10.1074 5.49023L9.50977 5.0332L8.90625 5.49023L9.09375 4.75195L8.49023 4.24805H9.22852L9.50977 3.50977Z" fill="white"/>
<path d="M11.4902 6.50977L11.7715 7.24805H12.5098L11.9062 7.75195L12.0937 8.49023L11.4902 8.0332L10.8926 8.49023L11.0742 7.75195L10.5234 7.24805H11.2617L11.4902 6.50977Z" fill="white"/>
<path d="M7.52344 6.50977L7.75195 7.24805H8.49023L7.89258 7.75195L8.07422 8.49023L7.52344 8.0332L6.92578 8.49023L7.10742 7.75195L6.50977 7.24805H7.24805L7.52344 6.50977Z" fill="white"/>
<path d="M3.50977 6.50977L3.73828 7.24805H4.52344L3.92578 7.75195L4.10742 8.49023L3.50977 8.0332L2.90625 8.49023L3.09375 7.75195L2.49023 7.24805H3.22852L3.50977 6.50977Z" fill="white"/>
<path d="M13.5234 9.50977L13.752 10.248H14.4902L13.8926 10.752L14.0742 11.4902L13.5234 11.0332L12.9258 11.4902L13.1074 10.752L12.5098 10.248H13.248L13.5234 9.50977Z" fill="white"/>
<path d="M9.50977 9.50977L9.73828 10.248H10.5234L9.92578 10.752L10.1074 11.4902L9.50977 11.0332L8.90625 11.4902L9.09375 10.752L8.49023 10.248H9.22852L9.50977 9.50977Z" fill="white"/>
<path d="M5.49023 9.50977L5.77148 10.248H6.50977L5.90625 10.752L6.09375 11.4902L5.49023 11.0332L4.89258 11.4902L5.07422 10.752L4.52344 10.248H5.26172L5.49023 9.50977Z" fill="white"/>
<path d="M11.4902 12.5098L11.7715 13.248H12.5098L11.9062 13.752L12.0937 14.4902L11.4902 14.0332L10.8926 14.4902L11.0742 13.752L10.5234 13.248H11.2617L11.4902 12.5098Z" fill="white"/>
<path d="M7.52344 12.5098L7.75195 13.248H8.49023L7.89258 13.752L8.07422 14.4902L7.52344 14.0332L6.92578 14.4902L7.10742 13.752L6.50977 13.248H7.24805L7.52344 12.5098Z" fill="white"/>
<path d="M3.50977 12.5098L3.73828 13.248H4.52344L3.92578 13.752L4.10742 14.4902L3.50977 14.0332L2.90625 14.4902L3.09375 13.752L2.49023 13.248H3.22852L3.50977 12.5098Z" fill="white"/>
<path d="M4.89258 5.49023L5.49023 5.0332L6.09375 5.49023L5.85938 4.75195L6.46289 4.24805H5.67773L5.49023 3.50977L5.26172 4.24805H4.57031L5.16797 4.70508L4.89258 5.49023Z" fill="white"/>
<path d="M0.925781 11.4902L1.52344 11.0273L2.12109 11.4902L1.89258 10.752L2.49023 10.2422H1.79883L1.57031 9.50391L1.3418 10.2422H0.832031C0.832031 10.2891 0.785156 10.3359 0.785156 10.3828L1.20117 10.7051L0.925781 11.4902Z" fill="white"/>
</g>
</g>
<defs>
<clipPath id="clip0_2_86">
<rect width="30" height="30" fill="white"/>
</clipPath>
<clipPath id="clip1_2_86">
<rect width="30" height="30" fill="white"/>
</clipPath>
</defs>
</svg>
