<svg width="30" height="30" viewBox="0 0 30 30" fill="none" xmlns="http://www.w3.org/2000/svg">
<g clip-path="url(#clip0_2_17)">
<path d="M0.046875 15C0.046875 17.9473 0.873047 20.707 2.34961 23.0039H27.6562C29.0801 20.7012 29.959 17.9414 29.959 15C29.959 12.0586 29.1328 9.29297 27.6562 6.99609H2.34375C0.873047 9.29297 0.046875 12.0527 0.046875 15Z" fill="#F9F9F9"/>
<path d="M27.6973 6.99609C25.0312 2.80664 20.3379 0 15 0C9.66211 0 4.96875 2.80664 2.30273 6.99609H27.6973Z" fill="#B4D7EE"/>
<path d="M2.34375 23.0039C5.01562 27.1934 9.70898 30 15.0469 30C20.3848 30 25.0781 27.1934 27.7441 23.0039H2.34375Z" fill="#B4D7EE"/>
<path d="M21.8555 14.9062L17.7598 14.7656V14.7188C18.4043 14.625 18.9082 14.2148 19.5996 14.2559C20.4258 14.3496 20.9355 13.8398 21.2578 13.752C21.627 13.6582 21.8086 13.8457 21.8086 13.752C21.8555 13.6582 21.627 13.4297 21.1172 13.5234C20.6543 13.5703 20.5195 13.9863 19.459 13.8926C18.5391 13.8457 18.2637 14.2148 17.6191 14.2148V14.0742L21.2988 12.3691C21.2988 12.3691 21.3926 12.3223 21.3926 12.2285C21.3457 12.1348 21.252 12.1816 21.252 12.1816L17.5312 13.7109V13.6641C18.082 13.2949 18.3574 12.7441 19.0957 12.5625C19.875 12.334 20.1973 11.7363 20.4316 11.4609C20.6602 11.2324 20.9824 11.3672 20.9824 11.2793C20.9824 11.1914 20.6602 11.0977 20.291 11.3262C19.875 11.5547 19.875 11.9707 18.9082 12.293C18.082 12.5215 17.8945 12.9844 17.2969 13.3066L17.25 13.2598L20.0566 10.2715C20.0566 10.2715 20.1504 10.1777 20.1035 10.1309C20.0566 10.084 19.9629 10.1777 19.9629 10.1777L16.9746 12.9844C16.9746 12.9844 16.9746 12.9844 16.9277 12.9375C17.3437 12.3867 17.3906 11.7891 17.9414 11.3262C18.5859 10.7754 18.5859 10.1309 18.7207 9.80859C18.8613 9.48633 19.1836 9.48633 19.1367 9.39258C19.0898 9.29883 18.7676 9.3457 18.4922 9.71484C18.1699 10.1309 18.3516 10.4531 17.5723 11.0977C16.9277 11.6484 16.9277 12.1582 16.5117 12.6152C16.5117 12.6152 16.4648 12.6152 16.4648 12.5684L17.8477 8.70117C17.8477 8.70117 17.8945 8.60742 17.8008 8.56055C17.707 8.51367 17.6602 8.6543 17.6602 8.6543L15.9551 12.334H15.9082C16.0488 11.6895 15.9082 11.0918 16.2305 10.4941C16.6465 9.75586 16.3711 9.11133 16.3711 8.78906C16.418 8.41992 16.6934 8.32617 16.5996 8.28516C16.5527 8.19141 16.2305 8.37891 16.0957 8.83594C16.002 9.29883 16.2363 9.57422 15.7734 10.4941C15.3574 11.2734 15.5918 11.6895 15.3574 12.2871H15.3105L15.1699 8.19141C15.1699 8.19141 15.1699 8.05078 15.0762 8.05078C14.9824 8.05078 14.9824 8.19141 14.9824 8.19141L14.8008 12.2402H14.7539C14.6602 11.5957 14.25 11.0918 14.291 10.4004C14.3848 9.57422 13.875 9.06445 13.7871 8.74219C13.6934 8.41992 13.8809 8.19141 13.7871 8.19141C13.6934 8.14453 13.4648 8.37305 13.5586 8.88281C13.6055 9.3457 14.0215 9.48047 13.9277 10.541C13.8809 11.4609 14.25 11.7363 14.25 12.3809H14.2031L12.498 8.70117C12.498 8.70117 12.4512 8.60742 12.3574 8.60742C12.2637 8.6543 12.3105 8.74805 12.3105 8.74805L13.6934 12.6152H13.5996C13.2305 12.0645 12.6797 11.7891 12.498 11.0508C12.2695 10.2715 11.6719 9.94922 11.3965 9.71484C11.168 9.48633 11.3027 9.16406 11.2148 9.16406C11.1211 9.16406 11.0332 9.48633 11.2617 9.85547C11.4902 10.2715 11.9062 10.2715 12.2285 11.2383C12.457 12.0645 12.9199 12.252 13.2422 12.8496L13.1484 12.8965L10.1602 10.0898C10.1602 10.0898 10.0664 9.99609 10.0195 10.043C9.97266 10.0898 10.0664 10.1836 10.0664 10.1836L12.873 13.1719C12.873 13.1719 12.873 13.1719 12.8262 13.2188C12.2754 12.8027 11.6777 12.7559 11.2148 12.2051C10.6641 11.5605 10.0195 11.5605 9.69727 11.4258C9.375 11.2852 9.375 10.9629 9.28125 11.0098C9.1875 11.0566 9.23437 11.3789 9.60352 11.6543C10.0195 11.9766 10.3418 11.7949 10.9863 12.5742C11.5371 13.2188 12.0469 13.2188 12.5039 13.6348C12.5039 13.6348 12.5039 13.6816 12.457 13.6816L8.58984 12.2988C8.58984 12.2988 8.49609 12.252 8.44922 12.3457C8.40234 12.4395 8.54297 12.4863 8.54297 12.4863L12.2227 14.1914V14.2383C11.5781 14.0977 10.9805 14.2383 10.3828 13.916C9.64453 13.5 9 13.7754 8.67773 13.7754C8.30859 13.7285 8.21484 13.4531 8.17383 13.5469C8.08008 13.5938 8.26758 13.916 8.72461 14.0508C9.1875 14.1445 9.46289 13.9102 10.3828 14.373C11.1621 14.7891 11.5781 14.5547 12.1758 14.7891V14.8359L8.08008 14.9766C8.08008 14.9766 7.93945 14.9766 7.93945 15.0703C7.93945 15.1641 8.08008 15.1641 8.08008 15.1641L12.1758 15.3047V15.3516C11.5312 15.4453 11.0273 15.8555 10.3359 15.8145C9.50977 15.7207 9 16.2305 8.67773 16.3184C8.30859 16.4121 8.12695 16.2246 8.12695 16.3184C8.08008 16.4121 8.30859 16.6406 8.81836 16.5469C9.32227 16.5 9.41602 16.1309 10.4766 16.1777C11.3965 16.2246 11.6719 15.8555 12.3164 15.8555V15.9023L8.64844 17.5781C8.64844 17.5781 8.55469 17.625 8.55469 17.7188C8.55469 17.8125 8.69531 17.7656 8.69531 17.7656L12.5625 16.3828V16.4297C12.0117 16.7988 11.7363 17.3496 10.998 17.5313C10.2187 17.7598 9.89648 18.3574 9.66211 18.6328C9.43359 18.9082 9.11133 18.7266 9.11133 18.8145C9.11133 18.9023 9.43359 18.9961 9.80273 18.7676C10.2188 18.5391 10.2187 18.123 11.1855 17.8008C12.0117 17.5723 12.1992 17.1094 12.7969 16.7871L12.8437 16.834L10.0371 19.8223C10.0371 19.8223 9.94336 19.916 9.99023 19.9629C10.0371 20.0098 10.1309 19.916 10.1309 19.916L13.1191 17.1094C13.1191 17.1094 13.1191 17.1094 13.166 17.1562C12.75 17.707 12.7031 18.3047 12.1523 18.7676C11.5078 19.3184 11.5078 19.9629 11.373 20.2852C11.2324 20.6074 10.9102 20.6074 10.957 20.7012C11.0039 20.7949 11.3262 20.748 11.6016 20.3789C11.9238 20.0098 11.7422 19.6406 12.5215 18.9961C13.166 18.4453 13.166 17.9355 13.582 17.4785C13.582 17.4785 13.6289 17.4785 13.6289 17.5254L12.2461 21.3926C12.2461 21.3926 12.1992 21.4863 12.293 21.5332C12.3867 21.5801 12.4336 21.4395 12.4336 21.4395L14.1387 17.7598H14.1855C14.0449 18.4043 14.1855 19.002 13.8633 19.5996C13.4473 20.3379 13.7227 20.9824 13.6816 21.3047C13.6348 21.6738 13.3594 21.7676 13.4531 21.8086C13.5 21.9023 13.8223 21.7148 13.957 21.2578C14.0508 20.7949 13.8164 20.5664 14.2793 19.5996C14.6953 18.8203 14.4609 18.4043 14.6953 17.8066H14.7422L14.8828 21.9023C14.8828 21.9023 14.8828 22.043 14.9766 22.043C15.0703 22.043 15.0703 21.9023 15.0703 21.9023L15.2109 17.8066H15.2578C15.3516 18.4512 15.7617 18.9551 15.7207 19.6465C15.627 20.4727 16.1367 20.9824 16.2246 21.3047C16.3184 21.6738 16.1309 21.8555 16.2246 21.8555C16.3184 21.9023 16.5469 21.6738 16.4531 21.1641C16.4062 20.7012 15.9902 20.5664 16.084 19.5059C16.1309 18.5859 15.7617 18.3105 15.7617 17.666H15.8086L17.5137 21.3457C17.5137 21.3457 17.5605 21.4395 17.6543 21.4395C17.748 21.3926 17.7012 21.2988 17.7012 21.2988L16.2773 17.3906H16.418C16.7871 17.9414 17.3379 18.2168 17.5195 18.9551C17.748 19.7344 18.3457 20.0566 18.6211 20.291C18.8965 20.5195 18.7148 20.8418 18.8027 20.8418C18.8906 20.8418 18.9844 20.5195 18.7559 20.1504C18.5273 19.7812 18.1113 19.7344 17.7891 18.7676C17.5605 17.9414 17.0977 17.7539 16.7754 17.1562L16.8223 17.1094L19.8105 19.916C19.8105 19.916 19.9043 20.0098 19.9512 19.9629C19.998 19.916 19.9043 19.8223 19.9043 19.8223L17.0977 16.834C17.0977 16.834 17.0977 16.834 17.1445 16.7871C17.6953 17.2031 18.293 17.25 18.7559 17.8008C19.3066 18.4453 19.9512 18.4453 20.2734 18.5801C20.5957 18.7207 20.5957 19.043 20.6895 18.9961C20.7832 18.9492 20.7363 18.627 20.3672 18.3516C19.9512 18.0293 19.6289 18.2109 18.9844 17.4316C18.4336 16.834 17.9238 16.834 17.5137 16.3711C17.5137 16.3711 17.5137 16.3242 17.5605 16.3242L21.4277 17.707C21.4277 17.707 21.5215 17.7539 21.5684 17.6602C21.6152 17.5664 21.4746 17.5195 21.4746 17.5195L17.7949 15.8145V15.7676C18.4395 15.9082 19.0371 15.7676 19.6348 16.0898C20.373 16.5059 21.0176 16.2305 21.3398 16.2305C21.709 16.2773 21.8027 16.5527 21.8437 16.459C21.9375 16.4121 21.75 16.0898 21.293 15.9551C20.8301 15.8613 20.5547 16.0957 19.6348 15.6328C18.8555 15.2168 18.4395 15.4512 17.8418 15.2168V15.1699L21.9375 15.0293C21.9375 15.0293 22.0781 15.0293 22.0781 14.9355C21.9961 14.9062 21.8555 14.9062 21.8555 14.9062Z" fill="#F6B40E"/>
<path d="M16.5176 14.6309C16.377 14.4902 16.1484 14.4023 15.9668 14.4023C15.7852 14.4023 15.5977 14.4961 15.4629 14.6309C15.7383 14.8594 16.1953 14.8594 16.5176 14.6309ZM16.3828 14.584C16.2891 14.6777 16.2012 14.7246 16.0605 14.7246C16.1074 14.6777 16.1543 14.6309 16.1543 14.584C16.1543 14.5371 16.1074 14.4902 16.0605 14.4434C16.2422 14.4961 16.3359 14.5371 16.3828 14.584ZM15.8262 14.4492C15.7793 14.4961 15.7793 14.543 15.7793 14.5898C15.7793 14.6367 15.8262 14.7305 15.873 14.7305C15.7793 14.7305 15.6914 14.6836 15.5508 14.5898C15.6914 14.5371 15.7383 14.4961 15.8262 14.4492Z" fill="#85340A"/>
<path d="M16.0137 14.2617C15.6914 14.2617 15.6445 14.3086 15.5508 14.4023C15.4102 14.4961 15.3691 14.4961 15.3691 14.4961C15.3691 14.4961 15.3691 14.5898 15.416 14.543C15.4629 14.543 15.5566 14.4961 15.6445 14.4023C15.7852 14.3086 15.873 14.3086 16.0605 14.3086C16.4766 14.3086 16.6582 14.6309 16.7051 14.6309C16.7461 14.6309 16.4238 14.2617 16.0137 14.2617Z" fill="#85340A"/>
<path d="M15.1816 14.2207C15.1348 14.3144 15.1348 14.3613 15.1348 14.4492C15.0879 14.7715 15.1348 15.0937 15.3164 15.4629C15.3164 15.4629 15.3633 15.416 15.4101 15.416C15.2285 15.1875 15.1816 14.8652 15.1816 14.6367C15.1816 14.4961 15.2754 14.4082 15.3223 14.2676C15.6914 13.9453 16.289 14.0391 16.7461 14.4082C16.3359 13.7578 15.6914 13.8047 15.1816 14.2207Z" fill="#85340A"/>
<path d="M15.6914 14.8594C15.5508 14.7656 15.5098 14.7188 15.4629 14.7188C15.416 14.7188 15.416 14.7656 15.6035 14.8594C15.7852 14.9531 16.2012 15 16.5703 14.7188C16.1016 14.9062 15.8262 14.9063 15.6914 14.8594Z" fill="#85340A"/>
<path d="M15.416 15.6445C15.3691 15.6445 15.3223 15.5977 15.2754 15.5508C15.2754 15.5977 15.1816 15.6914 15.0469 15.6914C14.9062 15.6914 14.8184 15.5508 14.8184 15.5508C14.8184 15.5977 14.7715 15.6445 14.6777 15.6445C14.6309 15.6445 14.5371 15.5977 14.5371 15.5039C14.5371 15.457 14.584 15.4102 14.6309 15.4102C14.5371 15.4102 14.4902 15.5039 14.4902 15.5918C14.4902 15.6797 14.584 15.7734 14.6719 15.7734C14.7187 15.7734 14.7656 15.7266 14.8125 15.6797C14.8594 15.7266 14.9941 15.7266 15.041 15.7266C15.041 15.7266 15.041 15.7266 15.0879 15.7266C15.1348 15.7266 15.2285 15.7266 15.3164 15.6797C15.3633 15.7266 15.4102 15.7734 15.457 15.7734C15.5508 15.7734 15.6387 15.6797 15.6387 15.5918C15.6387 15.5039 15.5918 15.4512 15.498 15.4102C15.5449 15.4102 15.5918 15.457 15.5918 15.5039C15.5508 15.5977 15.5039 15.6445 15.416 15.6445Z" fill="#85340A"/>
<path d="M15.0469 16.1016C15.1406 16.1016 15.2285 16.0078 15.416 16.1016C15.6035 16.1953 15.6445 16.2422 15.7852 16.2832C15.6035 16.1426 15.4629 15.9609 15.2812 15.9609C15.2344 15.9609 15.1406 15.9609 15.0996 16.0078C15.0059 15.9609 14.959 15.9609 14.918 15.9609C14.7363 15.9609 14.5957 16.1426 14.4141 16.2832C14.5078 16.2363 14.5957 16.1426 14.7832 16.1016C14.8184 16.0605 14.9062 16.1016 15.0469 16.1016Z" fill="#85340A"/>
<path d="M15.0469 16.2422C14.9531 16.2422 14.9063 16.1953 14.7246 16.2422C14.6309 16.2422 14.543 16.2422 14.3555 16.2891H14.3086C14.7715 16.3359 14.5371 16.6113 15 16.6113C15.4629 16.6113 15.2285 16.3828 15.6914 16.2891C15.6445 16.2891 15.6445 16.2891 15.5977 16.2891C15.2285 16.1484 15.1816 16.2422 15.0469 16.2422ZM15.0469 16.5176C14.6777 16.5176 14.8184 16.2891 14.4023 16.2891C14.8184 16.1953 14.8652 16.3359 15.0469 16.3359C15.1875 16.3359 15.2754 16.2422 15.6914 16.2891C15.2754 16.2891 15.3691 16.5176 15.0469 16.5176Z" fill="#85340A"/>
<path d="M15.0469 16.6113C14.8652 16.6113 14.6309 16.752 14.6309 17.0273C14.6777 16.8457 14.8125 16.7051 15.0469 16.7051C15.2754 16.7051 15.416 16.8457 15.4629 17.0273C15.416 16.7461 15.2285 16.6113 15.0469 16.6113Z" fill="#85340A"/>
<path d="M14.7246 14.2617C14.8184 14.3555 14.8652 14.4902 14.8652 14.6309C14.9121 14.8594 14.8184 15.1348 14.6367 15.4102C14.6367 15.4102 14.6836 15.4102 14.7305 15.457C14.8711 15.0879 14.959 14.8125 14.9121 14.4434C14.9121 14.3496 14.8652 14.3027 14.8652 14.2148C14.4023 13.7988 13.7637 13.752 13.2539 14.3965C13.7578 13.9395 14.4492 13.8984 14.7246 14.2617Z" fill="#85340A"/>
<path d="M14.4492 14.4492C14.5898 14.543 14.6309 14.5898 14.6777 14.5898C14.7246 14.5898 14.7246 14.543 14.7246 14.543C14.7246 14.543 14.6309 14.543 14.543 14.4492C14.4023 14.3555 14.3613 14.3086 14.0801 14.3086C13.6172 14.3086 13.3887 14.6777 13.4355 14.6777C13.4824 14.6777 13.6641 14.3555 14.0801 14.3555C14.1738 14.3555 14.3086 14.3555 14.4492 14.4492Z" fill="#85340A"/>
<path d="M13.5762 14.6309C13.6699 14.7246 13.8984 14.7715 14.0801 14.7715C14.2207 14.7715 14.4492 14.7246 14.584 14.6309C14.4434 14.4902 14.2148 14.4023 14.0332 14.4023C13.8984 14.4023 13.6641 14.4961 13.5762 14.6309ZM13.6641 14.6309C13.7578 14.5371 13.8457 14.4492 13.9863 14.4492C13.9395 14.4961 13.8926 14.543 13.8926 14.5898C13.8926 14.6836 13.9395 14.7305 13.9863 14.7305C13.8984 14.8184 13.7109 14.7715 13.6641 14.6309ZM14.4492 14.584C14.4023 14.6309 14.3086 14.6777 14.2207 14.7246C14.2676 14.6777 14.2676 14.6309 14.2676 14.584C14.2676 14.5371 14.2207 14.4902 14.2207 14.4434C14.3086 14.4961 14.4492 14.5371 14.4492 14.584Z" fill="#85340A"/>
<path d="M14.6777 14.6777C14.6309 14.6777 14.584 14.7246 14.4492 14.8184C14.3086 14.9121 13.9863 14.9121 13.623 14.7246C13.9922 15.0469 14.3613 14.9531 14.5898 14.8652C14.7246 14.7715 14.7246 14.6777 14.6777 14.6777Z" fill="#85340A"/>
</g>
<defs>
<clipPath id="clip0_2_17">
<rect width="30" height="30" fill="white"/>
</clipPath>
</defs>
</svg>
