<svg width="33" height="30" viewBox="0 0 33 30" fill="none" xmlns="http://www.w3.org/2000/svg">
<g clip-path="url(#clip0_2_72)">
<path fill-rule="evenodd" clip-rule="evenodd" d="M30.4399 8.52172C30.4399 8.27626 30.3355 8.04086 30.1495 7.8673C29.9635 7.69374 29.7113 7.59624 29.4483 7.59624L6.06079 7.59624L12.3018 1.77311C12.488 1.59933 12.5926 1.36363 12.5926 1.11787C12.5926 0.872108 12.488 0.636411 12.3018 0.462631C12.1156 0.28885 11.8631 0.191223 11.5998 0.191223C11.3365 0.191223 11.0839 0.28885 10.8977 0.462631L2.96505 7.86648C2.87271 7.95245 2.79944 8.05457 2.74946 8.16701C2.69947 8.27945 2.67374 8.39999 2.67374 8.52172C2.67374 8.64345 2.69947 8.76399 2.74946 8.87642C2.79944 8.98886 2.87271 9.09099 2.96505 9.17696L10.8977 16.5808C11.0839 16.7546 11.3365 16.8522 11.5998 16.8522C11.8631 16.8522 12.1156 16.7546 12.3018 16.5808C12.488 16.407 12.5926 16.1713 12.5926 15.9256C12.5926 15.6798 12.488 15.4441 12.3018 15.2703L6.06079 9.4472L29.4483 9.4472C29.7113 9.4472 29.9635 9.34969 30.1495 9.17613C30.3355 9.00257 30.4399 8.76717 30.4399 8.52172ZM2.67551 21.4784C2.67551 21.233 2.77998 20.9976 2.96594 20.824C3.1519 20.6505 3.40411 20.553 3.6671 20.553L27.0547 20.553L20.8136 14.7298C20.6274 14.5561 20.5228 14.3204 20.5228 14.0746C20.5228 13.8288 20.6274 13.5931 20.8136 13.4194C20.9998 13.2456 21.2523 13.148 21.5157 13.148C21.779 13.148 22.0315 13.2456 22.2177 13.4194L30.1504 20.8232C30.2427 20.9092 30.316 21.0113 30.366 21.1237C30.416 21.2362 30.4417 21.3567 30.4417 21.4784C30.4417 21.6002 30.416 21.7207 30.366 21.8332C30.316 21.9456 30.2427 22.0477 30.1504 22.1337L22.2177 29.5375C22.0315 29.7113 21.779 29.8089 21.5157 29.8089C21.2523 29.8089 20.9998 29.7113 20.8136 29.5375C20.6274 29.3638 20.5228 29.1281 20.5228 28.8823C20.5228 28.6365 20.6274 28.4008 20.8136 28.2271L27.0547 22.4039L3.6671 22.4039C3.40411 22.4039 3.1519 22.3064 2.96594 22.1329C2.77998 21.9593 2.67551 21.7239 2.67551 21.4784Z" fill="#5DA7EC"/>
</g>
<defs>
<clipPath id="clip0_2_72">
<rect width="29.6154" height="31.7308" fill="white" transform="translate(0.692322 29.8077) rotate(-90)"/>
</clipPath>
</defs>
</svg>
